# xmcd
#
# Track frame offsets:
# 150
# 16291
# 34528
# 51751
# 68734
# 84756
# 98208
# 117198
# 130808
# 144766
# 161368
# 177678
# 193881
# 214574
#
# Disc length: 3168 seconds
#
#
# Revision: 1
# Processed by: cddbd v1.5.2PL0 Copyright (c) Steve Scherf et al.
# Submitted via: FreeRIP 2.951 
#
DISCID=b30c5e0e
DTITLE=Erick and Léo - Locutor
DYEAR=2007
DGENRE=Sertanejo
TTITLE0=Locutor
TTITLE1=Essa Vida
TTITLE2=Feitiço
TTITLE3=Dividido Ao Meio
TTITLE4=Paixão Ou Loucura
TTITLE5=Bicho De Pena
TTITLE6=Eu Me Rendo
TTITLE7=Que Saudade De Você
TTITLE8=Vai Bombar
TTITLE9=Caí Na Real (A Fronha Do Seu Travesseiro)
TTITLE10=Furacão
TTITLE11=Mulher De Programa
TTITLE12=Pense Em Mim/Temporal De Amor/Talismã
TTITLE13=Só Dá Você Em Minha Vida/Estou Apaixonado/Rosto Molhado
EXTD=
EXTT0=
EXTT1=
EXTT2=
EXTT3=
EXTT4=
EXTT5=
EXTT6=
EXTT7=
EXTT8=
EXTT9=
EXTT10=
EXTT11=
EXTT12=
EXTT13=
PLAYORDER=
